<?xml version="1.0" encoding="UTF-8"?>
<svg xmlns="http://www.w3.org/2000/svg" width="280" height="280" version="1.1" viewBox="0 0 280 280">
  <!-- Generator: Adobe Illustrator 28.7.1, SVG Export Plug-In . SVG Version: 1.2.0 Build 142)  -->
  <g>
    <g id="Layer_1">
      <g>
        <path d="M10.45,124.43c.19-.53.2-1.06.19-1.61v-.88c0-.28,0-.56.02-.86,0-.09.02-.17.05-.27,0-.02.02-.03.02-.05.09-.33.06-.67.08-1.02.02-.09.02-.17.05-.25,0-.06.02-.11.03-.16.13-.38.06-.75.14-1.13.83-5.15,2.44-10.03,5.15-14.5,3.82-6.26,9.09-10.97,15.57-14.36,7.37-3.86,15.27-5.9,23.5-6.8,2.75-.3,5.52-.52,8.28-.5,7.09.08,14.05,1.16,20.84,3.22,5.08,1.55,9.95,3.57,14.41,6.48,5.52,3.61,9.93,8.18,12.05,14.6,1.28,3.86,1.42,7.82.53,11.78-.78,3.47-2.71,6.24-5.49,8.43-3.19,2.53-6.93,3.83-10.87,4.63-3.13.64-6.29.86-9.45.86-2.6-.02-5.22-.08-7.81-.53-1.22-.2-2.3-.74-3.25-1.5-.8-.66-1.14-1.55-1.16-2.55-.02-1.13.58-1.89,1.77-2.21,4.21-1.14,8.09-3.02,11.8-5.27,1.77-1.1,3.39-2.38,4.79-3.96,2.21-2.49,2.39-5.32,1.53-8.31-1.38-4.83-4.65-8.13-8.84-10.62-4.63-2.72-9.71-3.86-14.97-4.52-3.32-.41-6.65-.47-9.96-.33-8.06.33-15.88,1.78-22.95,5.94-8.28,4.9-12.91,12.17-14,21.71-.99,8.56,1.38,16.28,5.82,23.51,2.17,3.55,4.77,6.76,7.74,9.64,4.22,4.08,8.92,7.52,14.09,10.34,9.5,5.18,19.68,8.09,30.36,9.43,5.87.74,11.76.99,17.66.77,8.98-.34,17.83-1.61,26.39-4.43,8.74-2.88,16.8-7.01,23.76-13.12,1.97-1.71,3.85-3.52,5.48-5.57l.02-.02s.02-.02.02-.03c4.15-4.93,7.32-10.36,8.6-16.77.7-3.52.38-6.99-.34-10.45-1.06-5.08-3.33-9.61-6.68-13.58-.89-1.05-1.83-2.05-2.89-2.91-.97-.77-1.22-1.72-1.25-2.85-.06-2.68.17-5.33.58-7.98.48-3.14,1.03-6.26,1.89-9.32.16-.56.38-1.13.61-1.66.94-2.11,2.5-2.82,4.69-2.1,3.14,1.03,5.98,2.63,8.64,4.55,9.54,6.93,14.7,16.44,16.38,28,.45,3.13.69,6.3.52,9.46-.28,5.26-1.45,10.32-3.55,15.17-2.44,5.65-5.76,10.7-9.89,15.27-5.48,6.05-11.86,10.92-18.96,14.91-11.39,6.37-23.64,10.04-36.53,11.78-1.44.2-2.89.28-4.35.38h-.67s-.08,0-.13,0c-.03,0-.06,0-.08.02h.08c.06,0,.14-.02.22,0h.77c1.74-.14,3.47-.22,5.21-.22,29.93,0,59.85-.02,89.79.02,19.88.02,39.78-.05,59.66,0,1.22.02,2.28-.2,3.1-1.17.06-.03.13-.06.19-.06h.02s.09.02.14.03c-.05,0-.11.02-.16.02-.36,1-1.13,1.44-2.14,1.49-.25.02-.5,0-.75,0H112.66c-.5,0-.99-.02-1.49-.03-.25.08-.48.03-.74.02-.08-.02-.17-.03-.25-.05.03-.19.16-.11.27-.11.23,0,.48,0,.74-.02,7.21-.77,14.33-2.03,21.27-4.11,9.48-2.82,18.38-6.85,26.48-12.53,6.76-4.72,12.64-10.34,17.22-17.25,3.46-5.22,6.01-10.86,7.27-17.02.8-3.86.97-7.74.74-11.67-.23-4.05-.88-8.03-2.13-11.89-3.47-10.65-10.15-18.58-20.24-23.56-1.02-.52-2.08-.95-3.19-1.27-1.85-.53-2.99-.06-3.88,1.61-.83,1.6-1.19,3.33-1.56,5.05-.78,3.64-1.42,7.32-1.64,11.04-.08,1.49-.13,2.99.08,4.47.05.36.14.63.42.86,5.48,4.63,8.82,10.51,10.32,17.47,1.28,5.96.61,11.67-1.96,17.18-1.6,3.39-3.57,6.54-5.96,9.42-.16.19-.34.36-.52.53-1.25,1.67-2.75,3.11-4.27,4.54-5.24,4.88-11.23,8.59-17.77,11.47-6.63,2.93-13.55,4.83-20.7,5.98-6.65,1.06-13.34,1.44-20.07,1.27-10.75-.27-21.26-1.96-31.36-5.77-7.98-3-15.31-7.1-21.71-12.8-5.26-4.69-9.59-10.07-12.58-16.49-1.89-4.05-3.18-8.29-3.44-12.78-.31-5.35.42-10.54,2.68-15.44,2.77-5.99,7.26-10.32,13.03-13.38,4.08-2.16,8.43-3.46,12.95-4.29,4.94-.89,9.93-1.16,14.94-.91,5.41.28,10.73,1.16,15.77,3.33,3.35,1.45,6.34,3.41,8.73,6.21,1.85,2.17,3.08,4.65,3.61,7.46.5,2.64-.03,4.99-1.8,7.04-1.3,1.53-2.83,2.78-4.51,3.88-3.5,2.28-7.31,3.97-11.26,5.32-.38.13-.78.16-1.17.28-1.02.3-1.47.94-1.47,1.99,0,.84.28,1.6.92,2.16.81.74,1.74,1.3,2.85,1.5,2.57.48,5.18.61,7.79.63,4.33.03,8.62-.38,12.81-1.58,3.02-.88,5.82-2.16,8.23-4.21,3.54-2.97,5.24-6.84,5.46-11.42.38-8.18-3.1-14.58-9.15-19.79-3.6-3.1-7.71-5.32-12.08-7.12-5.68-2.35-11.59-3.83-17.68-4.69-4.63-.66-9.28-.83-13.94-.52-7.73.55-15.27,2-22.45,5.01-5.18,2.14-9.93,4.99-13.97,8.92-5.49,5.33-8.95,11.78-10.56,19.24-.19.88-.36,1.75-.55,2.63.02.41.02.81-.19,1.19.05.11.05.22-.02.31-.02.39.06.78-.16,1.14v.03c.08.3.02.58-.05.88-.03.89.17,1.8-.36,2.61Z" fill="#1a3c6b"/>
        <path d="M26.22,209.31c1.56-.02,2.72,1.13,2.72,2.68.02,1.5-1.22,2.74-2.71,2.72-1.45-.02-2.67-1.22-2.69-2.68-.02-1.53,1.14-2.71,2.67-2.72Z" fill="#1a3c6b"/>
        <path d="M27.76,248.51c1.05,1.36,1.56,2.94,1.55,4.69v19.85c.02.25-.11.39-.38.39h-4.29c-.42.02-.42-.27-.42-.56v-8.93c0-.7-.02-.72-.72-.72-2.36-.02-4.72-.02-7.09,0-.72,0-.72.02-.72.8v8.29c0,.19-.02.38,0,.56.05.45-.16.58-.59.58-1.55-.02-3.1,0-4.66.02.34-.3.75-.27,1.16-.28.86,0,1.74.02,2.61,0,1.1-.02,1.17-.08,1.17-1.16.02-2.27,0-4.54,0-6.8,0-.31,0-.63.02-.94.03-1.16.2-1.35,1.38-1.35,2.11-.02,4.22-.02,6.34,0,1.2,0,1.39.2,1.41,1.42.02,2.52,0,5.04,0,7.56.02,1.2.08,1.27,1.27,1.27.75,0,1.5-.03,2.24.02.74.03,1.03-.31.99-1.02-.02-.23,0-.48,0-.74,0-5.91-.11-11.81.03-17.72.11-4.24-3-7.62-6.7-8.53-4.4-1.08-8.85.91-10.79,4.82-.3.61-.28,1.35-.8,1.86-.03.02-.06.02-.09.02h-.06s-.02-.02-.02,0c-.05-.02-.09-.03-.14-.06h.2c.17-.5.3-1,.5-1.49,1.33-3.16,3.75-5.01,7.07-5.55,3.85-.64,7.12.56,9.54,3.71Z" fill="#1a3c6b"/>
        <path d="M36.35,245.41v27.58c.02.31-.13.45-.44.45-1.25,0-2.49,0-3.74.02-.36,0-.48-.17-.47-.52.02-.19,0-.38,0-.56v-26.66c0-1.14-.17-1.11,1.1-1.11h2.8c.74.02.75.03.75.8Z" fill="#1a3c6b"/>
        <path d="M41.73,218.02c-1.13,6.8-6.37,12.03-13.19,13.05-8.29,1.24-15.71-4.19-17.54-11.9-.06-.3-.14-.59-.2-.91-.22-.13-.11-.45-.36-.56.09,0,.16.02.22.05.06.02.09.06.13.11.09.13.13.3.2.44.55,1.85,1.05,3.71,2.13,5.35,2.77,4.24,6.6,6.73,11.67,7.26,8.53.91,15.49-5.55,16.63-12.59.16-.94.31-1.89.31-2.86-.02-.58-.27-.86-.86-.84-.64,0-1.3.03-1.96-.02-.75-.08-.99.14-1.02.95-.13,3.93-1.69,7.15-4.91,9.48-5.73,4.18-13.81,2.19-17.04-4.15-.84-1.67-1.35-3.41-1.27-5.27.05-.78-.27-1.06-1.03-1.02-.74.05-1.49.02-2.24,0-.34,0-.69.02-.97-.23,1.33-.19,2.67-.05,4-.09.36,0,.48.13.47.5-.09,1.31.02,2.6.38,3.86,1.36,4.83,5.58,7.76,9.59,8.28,5.24.67,11.25-2.74,12.56-9.2.11-.55.17-1.11.2-1.66.03-.56,0-1.11,0-1.77,1.27,0,2.57-.02,3.86,0,.39,0,.39.33.41.61.08,1.05-.02,2.11-.19,3.14Z" fill="#1a3c6b"/>
        <path d="M55.16,259.91c1.71,1.89,2.47,4.15,2.42,6.66-.08,3.29-2.61,6.13-5.94,6.71-.61.11-1.22.17-1.85.17-1.41-.02-2.8-.02-4.21-.02-1.61,0-3.22.02-4.85,0-.7,0-.72-.02-.72-.72-.02-1.16-.02-2.3,0-3.46,0-.66.02-.67.69-.67h8.48c.69,0,1.38-.06,2.02-.3,1.03-.36,1.42-.97,1.36-2.05-.09-1.39-.66-2.58-1.64-3.55-.69-.69-1.47-1.24-2.28-1.75-1.3-.81-2.64-1.53-3.88-2.42-1.33-.95-2.49-2.08-3.11-3.63-2.16-5.35,1.56-10.15,6.7-10.26,2.64-.05,5.29-.02,7.93,0,.64,0,.66.02.66.69.02,1.13,0,2.24,0,3.36,0,.75-.02.77-.75.77-2.11.02-4.22.02-6.34,0-.56,0-1.13.05-1.67.17-1.08.23-1.63.95-1.61,2.08.02.84.39,1.55.94,2.17.58.66,1.28,1.19,2,1.67,1.05.72,2.11,1.42,3.14,2.14.92.64,1.77,1.38,2.52,2.22Z" fill="#1a3c6b"/>
        <path d="M76.46,256.85c1.38,1.88,2.06,4,2.06,6.34.02,3.11.02,6.23,0,9.34q0,.92-.88.92c-1.03.02-2.06.02-3.08,0-.64,0-.66-.02-.66-.69-.02-3.02-.02-6.02,0-9.04,0-.91-.19-1.78-.55-2.63-.78-1.86-2.44-2.97-4.33-2.96-1.88.03-3.55,1.24-4.29,3.08-.78,2-.31,4.32,1.17,5.77,1.74,1.71,4.35,1.77,6.16.17.2-.19.41-.38.78-.74,0,2.08-.02,3.94,0,5.8,0,.41-.3.5-.59.61-1.96.74-3.94.84-5.93.16-3.38-1.19-5.44-3.63-6.3-7.04-1.02-4.02-.08-7.62,2.94-10.5,3.99-3.8,10.17-3.13,13.48,1.39Z" fill="#1a3c6b"/>
        <path d="M83,182.28h-.94c-1.14-.13-2.28-.23-3.43-.34-5.73-.55-11.39-1.42-17-2.67-7.51-1.66-14.78-4.02-21.7-7.45-5.51-2.72-10.62-6.07-15.05-10.36-8.65-8.37-13.27-18.6-14.09-30.57-.05-.61.03-1.25-.34-1.8.31,1.89.2,3.83.48,5.73,1.74,11.62,7.13,21.23,16,28.85,5.38,4.63,11.51,8.01,18.05,10.7,7.54,3.11,15.38,5.15,23.4,6.46,3.86.63,7.74,1.22,11.67,1.44-1.69-.08-3.39-.13-5.08-.13-20.29.02-40.58,0-60.88.02-1.13,0-2.17-.11-2.97-1-.09-.06-.2-.14-.31-.17-.03-.02-.08-.03-.11-.03-.08-.03-.16-.03-.25,0,.13.06.25.13.38.19.56,1.02,1.44,1.33,2.57,1.33,22.46-.02,44.93-.02,67.39-.02.44,0,.88-.02,1.31-.03.3.08.61.03.91.02.16.02.31.05.42-.09-.13-.11-.28-.09-.42-.06ZM82.89,182.35h-1.02c-.42-.02-.84-.05-1.27-.06.48.02.97.03,1.47.05h.06c.27.02.52,0,.77,0,.02.02.05.02.06.02h-.08ZM83.08,182.35h-.06s.03-.02.05-.02c.08-.02.14-.03.2.06-.06-.05-.11-.05-.19-.05Z" fill="#1a3c6b"/>
        <path d="M84.86,272.43c0,1.08.09,1.03-1,1.02-1,0-1.99.02-2.99,0-.64,0-.66-.02-.66-.69-.02-3.07,0-6.15,0-9.23v-18.44c-.02-.31.11-.45.42-.45,1.25,0,2.49,0,3.74-.02.36,0,.5.17.49.52-.02.19,0,.38,0,.56v26.73Z" fill="#1a3c6b"/>
        <path d="M110.74,259.91c.03,4.25.02,8.53,0,12.78q0,.75-.78.75c-.91.02-1.8.02-2.71,0-.72,0-.72-.02-.74-.7-.02-.19,0-.38,0-.56,0-3.82-.08-7.65.02-11.47.06-2.08-2.16-3.47-4.05-2.55-1.05.52-1.53,1.36-1.53,2.55.02,3.88,0,7.76,0,11.64v.66c.02.31-.13.45-.44.45-1.1-.02-2.17-.02-3.27,0-.3,0-.47-.11-.45-.44,0-.23-.02-.48-.02-.74,0-3.83.02-7.65,0-11.47,0-1.55-.77-2.52-2.13-2.88-1.47-.39-3.5.66-3.44,2.66.05,2.05,0,4.1,0,6.15v5.79q0,.91-.91.91c-.91.02-1.8-.02-2.71.02-.48.02-.64-.16-.64-.64.03-2.21.02-4.41.02-6.62,0-2.05.03-4.1,0-6.16-.08-4.19,3.41-6.59,6.45-6.74,1.81-.08,3.47.28,4.91,1.39.45.36.7.27,1.11-.03,1.97-1.42,4.18-1.71,6.48-1.06,2.94.81,4.82,3.27,4.83,6.32Z" fill="#1a3c6b"/>
        <path d="M128.66,256.28c1.66,1.94,2.49,4.21,2.5,6.76v9.32c0,.22-.02.44,0,.66,0,.33-.16.44-.47.44-1.2-.02-2.42-.02-3.63,0-.42,0-.55-.2-.53-.58.02-.2,0-.42,0-.64,0-2.71-.02-5.41.02-8.12,0-.75-.09-1.49-.27-2.21-.69-2.97-3.77-4.63-6.38-3.38-1.99.94-2.88,2.64-2.86,4.76.03,2.11.99,3.8,2.99,4.66,1.69.72,3.29.41,4.69-.78.23-.19.38-.48.69-.59.17.28.09.53.09.77.02,1.45.02,2.93.02,4.38,0,.91,0,.92-.91,1.22-3.03,1-5.85.52-8.35-1.42-2.49-1.91-3.72-4.54-3.93-7.63-.19-2.8.59-5.35,2.41-7.52,3.72-4.46,10.18-4.49,13.92-.08Z" fill="#1a3c6b"/>
        <path d="M134.36,211.04c.02-2.86.02-5.73.02-8.59,0-1.2-.02-2.42-.02-3.63,0-.94.06-.89-.83-.89-.72.02-1.42,0-2.14.02-1.08,0-1-.13-1,1v19.87c0,.22-.02.44,0,.66.05.41-.14.53-.53.53-2.14-.02-4.29-.02-6.45,0-.38,0-.56-.11-.55-.53.03-.39,0-.8,0-1.2,0-2.74.02-5.48,0-8.21,0-.72-.02-.72-.7-.74h-2.33c-1.03,0-.99-.09-.99.94.02,2.86.02,5.73,0,8.57-.02,1.78-1.61,3.3-3.39,3.29-1.83-.02-3.3-1.49-3.3-3.33-.02-2.77-.02-5.52-.02-8.29,0-.22-.02-.44,0-.66.05-.42-.17-.53-.55-.52-.97.02-1.94.02-2.89,0-.34-.02-.53.09-.52.47.02.22,0,.44,0,.66,0,2.78.02,5.58-.02,8.38-.02,1.81-1.55,3.29-3.38,3.29s-3.32-1.5-3.33-3.3c-.02-.59-.02-1.17-.02-1.77,0-2.33.02-4.66,0-6.99,0-.72-.02-.72-.72-.74-.89,0-1.8.02-2.71,0-.42-.02-.63.09-.59.56.03.5,0,1,0,1.5v7.92c0,.33.11.7-.45.7-2.24-.02-4.47-.02-6.73,0-.36,0-.5-.14-.48-.5.02-.22.02-.44.02-.66v-19.77c0-.22-.02-.44,0-.66.02-.34-.14-.48-.5-.48-.74.02-1.49,0-2.24,0q-1.24,0-1.24,1.22v19.96c0,.88-.02.88-.84.89h-5.79c-.8,0-.81-.02-.97-.77-1.35-6.1-7.32-10.54-13.78-9.59-5.18.77-8.6,3.74-10.32,8.68-.19.52-.08,1.24-.5,1.55-.44.34-1.14.11-1.72.11-1.13.02-2.24.02-3.36.02q-.88-.02-.88-.84c-.02-.16,0-.31,0-.47v-15.21c0-1.58,0-3.18-.02-4.76q0-.78-.74-.78c-.84-.02-1.67-.02-2.52,0-.7,0-.72,0-.72.7v24.62c0,.75.02.75.77.75,2.74.02,5.48.02,8.21.02q1.05,0,1.3,1.03c1.3,5.13,5.82,8.98,11.06,9.39,6.16.48,11.75-3.58,13.2-9.64q.19-.78.94-.78c6.62,0,13.25,0,19.87-.02.45,0,.81.11,1.17.41,2.86,2.25,6.66,2.17,9.43-.16q.55-.45,1.1.02c2.78,2.3,6.55,2.39,9.37.19.42-.34.83-.45,1.35-.45,3.96.02,7.9.02,11.86.02.22,0,.44-.03.64,0,.39.03.48-.17.48-.52-.02-.17-.02-.36-.02-.55v-11.94ZM66.06,230.46c-4.74.02-8.49-3.69-8.49-8.42-.02-4.74,3.71-8.45,8.42-8.49,4.82-.06,8.49,4.07,8.51,8.42.03,4.4-3.58,8.51-8.43,8.49Z" fill="#1a3c6b"/>
        <path d="M141.79,223.01c0,1.16.09,1.02-1.06,1.03h-2.14q-.8-.02-.8-.84c-.02-1.49,0-2.99,0-4.47v-20.32c-.02-.3.09-.47.42-.47,1.05.02,2.11.02,3.18,0,.33,0,.42.17.41.47v24.61Z" fill="#1a3c6b"/>
        <path d="M147.84,256.44c.92,1.27,1.42,2.68,1.42,4.26v12.03c-.02.7-.02.72-.72.72-1.13.02-2.24.02-3.36,0-.74,0-.75-.02-.75-.8v-9.79c0-.61-.06-1.25,0-1.86.23-2.05-1.83-3.97-4.32-3.5-1.71.31-2.93,1.75-2.88,3.47.06,3.68.02,7.34.02,11.01v.56q0,.91-.91.91c-1.1.02-2.19-.02-3.27.02-.47.02-.67-.11-.66-.61.02-4.18-.09-8.34.05-12.5.09-3.21,1.97-5.35,4.83-6.62,3.74-1.66,8.24-.47,10.54,2.71Z" fill="#1a3c6b"/>
        <path d="M160.08,205.96c.33,0,.52.09.52.47-.02,1.06-.02,2.11,0,3.18,0,.38-.17.48-.52.47-.53-.02-1.06,0-1.58,0h-1.22c-.77-.02-.78-.02-.78-.74-.02-.94,0-1.88-.02-2.8,0-.36.08-.58.52-.58,1.02.02,2.05.02,3.08,0Z" fill="#1a3c6b"/>
        <path d="M166.66,205.96c.36,0,.48.17.48.52-.02,1.05-.02,2.1-.02,3.14.02.31-.11.45-.42.45-.56-.02-1.13,0-1.67,0-.5,0-1-.02-1.49,0-.42.03-.53-.16-.53-.55.02-1.02.02-2.03.02-3.05-.02-.34.09-.52.47-.52,1.05.02,2.11.02,3.16,0Z" fill="#1a3c6b"/>
        <path d="M162.86,225.78v-.02c-2.61,0-5.22-.02-7.84.02-3.35.03-6.35-2.24-7.34-5.32-.2-.66-.36-1.31-.36-2,0-2.68-.02-5.35,0-8.03,0-.69.02-.7.72-.7.94-.02,1.86-.02,2.8,0,.7,0,.72.02.72.74.02,2.11,0,4.22.02,6.34,0,.34,0,.69.02,1.03.16,1.77,1.1,2.99,2.68,3.74.36.17.75.25,1.17.25,4.54,0,9.07.02,13.61,0,1.99-.02,3.46-1.49,3.49-3.49.03-2.49.02-4.97.02-7.46v-.64c-.03-.36.11-.52.47-.52,1,.02,2,.02,2.99.02.31-.02.47.11.45.44v.36c0,3.3.03,6.6,0,9.89-.03,2.55-1.69,4.61-4.11,5.22-.58.14-1.17.13-1.77.14h-7.73Z" fill="#1a3c6b"/>
        <path d="M183.27,203.1c.23,0,.33.13.33.34v21.35c0,.09.02.17,0,.27q0,.7-.72.7c-.86.02-1.74.02-2.61.02-.7-.02-.72-.03-.72-.72-.02-1.8-.02-3.61-.02-5.41v-15.38c0-.25.02-.5.02-.75,0-.23.08-.42.36-.42h3.36Z" fill="#1a3c6b"/>
        <path d="M191.96,252.75c-1.11-3.55-3.33-6.04-6.87-7.31-2.27-.81-4.61-.97-6.98-1.03-1.1-.03-2.17.08-3.25.19-.86.09-1.72.28-2.55.52-4.05,1.13-6.79,3.6-8.01,7.68-.83,2.72-.92,5.49-.72,8.31.16,1.89.55,3.74,1.33,5.49,1.03,2.25,2.61,3.97,4.83,5.1,1.66.84,3.43,1.31,5.26,1.5,3.18.31,6.34.28,9.42-.66,3.86-1.17,6.4-3.68,7.56-7.56.5-1.67.74-3.39.78-5.15.05-2.39-.08-4.77-.8-7.09ZM186.09,264.92c-1.06,2.67-3.02,4.27-5.85,4.76-1.67.3-3.35.28-4.99-.14-2.53-.67-4.21-2.3-5.15-4.72-.47-1.27-.7-2.58-.83-3.91-.2-2.46-.13-4.9.66-7.27,1.14-3.47,3.8-5.46,7.45-5.54,1.03-.03,2.05-.05,3.07.16,3.03.61,4.99,2.38,5.91,5.3.55,1.74.69,3.54.7,5.51-.02,1.89-.19,3.93-.97,5.87Z" fill="#1a3c6b"/>
        <path d="M194.58,217.79c0,2.24.03,4.47,0,6.71-.05,3.35-2.08,6.09-5.19,7.07-.99.31-2,.33-3.03.31-.3,0-.45-.09-.45-.42.02-.97.02-1.92,0-2.89,0-.41.25-.42.55-.42,1.05,0,1.96-.38,2.71-1.08.89-.81,1.3-1.86,1.3-3.07-.02-4.35,0-8.7,0-13.05q0-1.27,1.28-1.27c.72,0,1.44-.02,2.14,0,.69,0,.7.02.7.74v7.37Z" fill="#1a3c6b"/>
        <path d="M212.97,260.65c.63,2.13.66,4.3.17,6.46-.75,3.35-3.02,5.41-6.45,5.99-.8.13-1.6.2-2.41.2h-4.29c-.11,2.24-.06,4.46-.02,6.7-.14-.14-.2-.31-.23-.48-.03-.09-.03-.19-.03-.3,0-1.77-.02-3.54.02-5.3,0-.14.02-.28.08-.42,0-.05.02-.08.03-.13.02-.02.03-.03.05-.03.38-.41.88-.3,1.35-.31,1.74-.08,3.47.11,5.21-.19,4.22-.74,6.6-3.49,6.7-7.77.02-1.56-.03-3.1-.53-4.61-1-2.97-3.13-4.6-6.15-5.15-.89-.17-1.78-.22-2.69-.2-2.3.02-4.6,0-6.9,0-1.45,0-1.47.02-1.47,1.44v21.98c0,.41.03.81-.09,1.2-.02.03-.03.06-.06.09-.02.06-.06.13-.11.19v-.19c-.02-.31-.05-.61-.05-.92-.02-7.67-.02-15.35,0-23.01,0-1.2-.08-1.03,1.05-1.05h8.1c1,0,1.99.09,2.96.33,2.97.74,4.9,2.58,5.77,5.49Z" fill="#1a3c6b"/>
        <path d="M226.11,255.52c0,.83-.02,1.67,0,2.52.02.41-.14.53-.53.53-1.31-.02-2.61-.02-3.93-.02-.77.02-.78.02-.78.75,0,2.27-.02,4.54,0,6.79.03,2.49.8,3.27,3.27,3.44.5.03.99.05,1.49.03.36,0,.48.16.48.5-.02.94,0,1.86,0,2.8,0,.23-.03.44-.34.44-1.86-.05-3.74.19-5.57-.14-2.58-.44-4.1-2.27-4.19-4.94-.05-1.49,0-2.97,0-4.46h-.02c0-1.53-.02-3.05.02-4.57,0-.48-.16-.66-.64-.64-.74.03-1.49,0-2.24.02-.36,0-.58-.08-.58-.52.02-.89.02-1.8,0-2.69,0-.41.17-.55.56-.53.69.02,1.36,0,2.05,0q.83,0,.83-.89v-5.12q.02-.7.72-.72c1.19,0,2.36.03,3.55,0,.5-.02.63.17.61.64-.02,1.77,0,3.54,0,5.3,0,.77.02.78.75.78,1.27.02,2.55,0,3.82,0,.66.02.66.03.67.69Z" fill="#1a3c6b"/>
        <path d="M232.46,248.59c-.02,1.22-.02,2.42,0,3.64,0,.36-.14.5-.5.48-.67-.02-1.36,0-2.05,0s-1.36-.02-2.05,0c-.36.02-.48-.14-.48-.5.02-1.2.02-2.42,0-3.63,0-.36.14-.48.5-.48,1.36.02,2.74.02,4.1,0,.36,0,.48.14.48.48Z" fill="#1a3c6b"/>
        <path d="M232.46,255.5v17.05c0,.75-.02.75-.78.75-1.2.02-2.41.02-3.63,0-.64,0-.66-.02-.66-.67-.02-2.05-.02-4.1-.02-6.15,0-3.6,0-7.21.02-10.81q0-.84.86-.84c1.17-.02,2.36-.02,3.54,0,.66,0,.66.02.67.67Z" fill="#1a3c6b"/>
        <path d="M248.98,202.93c.33,0,.42.17.42.47-.02.53,0,1.06,0,1.58s-.02,1,0,1.49c.02.39-.11.58-.53.56-1.02-.02-2.03-.02-3.07,0-.34,0-.52-.11-.5-.48v-3.16c0-.3.09-.45.42-.45,1.08.02,2.17.02,3.25,0Z" fill="#1a3c6b"/>
        <path d="M238.81,262.03c-.3,1.3-.31,2.6-.06,3.9.27,1.44,1.11,2.38,2.47,2.89,1.06.39,2.19.48,3.3.5,1.49.03,2.99,0,4.47.02.72,0,.74.02.74.72.02.83.02,1.67,0,2.5,0,.74-.02.75-.8.75-1.17.02-2.36,0-3.77,0-1.35-.03-2.93.06-4.51-.19-4.07-.61-6.62-3.24-7.15-7.31-.23-1.75-.16-3.49.31-5.18.74-2.67,2.49-4.38,5.1-5.22,1.11-.34,2.24-.53,3.39-.55,2.24-.03,4.47-.03,6.71-.03.69,0,.7.02.7.66.02.94-.02,1.86.02,2.8.02.48-.16.66-.64.64-1.64-.02-3.3,0-4.94-.02-.88,0-1.74.08-2.58.3-1.52.36-2.42,1.33-2.77,2.82Z" fill="#1a3c6b"/>
        <path d="M237.76,213.66c.19-3.07.06-6.15.31-9.21.06-.74-.2-1.03-.92-1.02-.56.03-1.13.02-1.67.02-.64-.02-.89.28-.89.91v16.03c0,1.55-.16,1.71-1.72,1.71-8.98,0-17.96-.05-26.94.03-2.02.02-4.1-1.56-4.04-4.02.13-4.44.05-8.89.03-13.33,0-1.28-.05-1.35-1.28-1.33-2.5,0-2.24-.25-2.24,2.25-.02,4.44,0,8.89-.02,13.33,0,.78.08,1.55.22,2.32.5,2.52,2.36,4.08,4.93,4.1h20.98c13,0,25.98-.05,38.97.03,2.75.02,4.6-1.03,5.62-3.55.03-.09.09-.16.16-.23.03-.05.08-.08.14-.08h.02s.09-.02.14.02c-.05,0-.09.02-.16.02-.39,2.14-2.33,3.91-4.49,4.1-.44.05-.88.03-1.31.03-19.79.02-39.59.02-59.38,0-.72,0-1.42.03-2.13-.19-2.13-.64-3.61-2.38-3.85-4.57-.05-.36-.05-.74-.05-1.11v-15.77c0-.17.02-.36,0-.55-.02-.36.16-.5.5-.48h2.99c.31,0,.47.11.45.44v.64c.02,4.49,0,8.96.02,13.44,0,.38-.02.75.02,1.11.16,1.67,1.53,2.99,3.21,3.1h27.88c1.14,0,1.02.08,1.02-.99v-16.6c0-.22.02-.44,0-.66-.02-.34.13-.5.48-.48h3.16c.31,0,.47.13.45.44v.28c-.08,2.49-.17,4.97-.23,7.46-.03,1.2-.02,2.41-.02,3.64.25.02.33-.27.48-.44,1.86-2,3.94-3.68,6.62-4.51,1.61-.5,3.24-.58,4.88-.23,2.58.56,4.36,2.11,5.48,4.49.83,1.74,1.09,3.6,1.16,5.51.02.5.08,1,.06,1.5-.02.52.23.59.67.58,1.56-.02,3.11.02,4.68,0,2.05-.03,3.52-1.47,3.54-3.54.02-2.67,0-5.35,0-8.01,0-.81.02-.83.81-.83,1.02,0,2.05.03,3.07.05-.74.48-1.56.23-2.36.27-1.19.05-1.25.08-1.27,1.28,0,2.36.02,4.72,0,7.09-.02,2.39-1.5,3.9-3.88,3.94-1.38.03-2.74.03-4.1,0-1.1-.02-1.38-.25-1.49-1.36-.11-1.11-.05-2.22-.25-3.33-.36-2.06-1.1-3.94-2.61-5.46-1.75-1.72-3.93-2.24-6.26-2.05-3.3.28-5.85,2.08-8.13,4.35-.33.33-.61,1-1.13.8-.48-.19-.34-.88-.31-1.36Z" fill="#1a3c6b"/>
        <path d="M268.34,257.3c0-2.53.2-2.19-2.19-2.21-2.64-.02-5.29,0-7.92,0-.78-.02-1.55.08-2.32.25-2.55.58-3.9,2.19-3.99,4.82-.05.92-.02,1.85.25,2.77.38,1.3,1.24,2.05,2.5,2.36.77.2,1.53.27,2.32.27,1.64-.02,3.29-.02,4.94-.02.69,0,1.36.08,1.99.39.74.36,1.16.95,1.14,1.78,0,.83-.48,1.38-1.24,1.71-.48.22-1.02.22-1.55.22h-8.76c-1.14,0-1.24.08-1.24,1.22,0,2.44-.2,2.14,2.14,2.14,3.14.02,6.27,0,9.42,0,2.82,0,4.22-.99,5.18-3.63.06-.17.13-.36.23-.5.03-.05.08-.08.13-.09h.02s.09,0,.14.03h-.16c-.41,2.75-2.33,4.47-5.07,4.49-3.85.02-7.7,0-11.54,0-.77,0-.78,0-.78-.74,0-.81-.02-1.63,0-2.42.02-.7.02-.72.74-.72h8.1c.75,0,1.5.02,2.24-.05.7-.06,1.33-.33,1.63-1.05.41-1-.05-1.99-1.1-2.28-.53-.16-1.09-.22-1.66-.2h-5.04c-.89-.02-1.78-.11-2.66-.39-1.22-.39-2.02-1.2-2.35-2.42-.41-1.5-.41-3.02.02-4.52.48-1.69,1.63-2.74,3.29-3.27.89-.28,1.81-.41,2.75-.41h9.87c.75,0,.75.02.77.78v2.24q0,.88-.94.88h-7.82c-.66,0-1.31-.02-1.96.16-.83.23-1.25.77-1.22,1.63.02.74.44,1.2,1.25,1.39.42.09.84.14,1.3.14,1.52-.02,3.03,0,4.55,0,1.11,0,2.17.16,3.18.61,1.36.63,2.25,1.64,2.46,3.16.06-.02.11,0,.16.02-.05.03-.09.03-.14.02h-.02s-.09-.03-.13-.08c-.94-2.58-2.93-3.46-5.49-3.39-1.47.02-2.93,0-4.4,0-.63,0-1.24-.09-1.81-.33-.72-.31-1.14-.83-1.13-1.66.02-.81.44-1.33,1.16-1.64.58-.25,1.2-.28,1.83-.28,2.58,0,5.16.02,7.74,0,1.08,0,1.17-.09,1.17-1.16Z" fill="#1a3c6b"/>
        <path d="M265.73,204.57c.02,2.41-.22,2.21,2.21,2.22.55,0,1.13-.13,1.61.28-1.11-.02-2.21-.03-3.32-.05-.72-.02-.74-.02-.74-.7-.02-.89-.02-1.8,0-2.69,0-.67,0-.69.64-.69,1.14-.02,2.27.02,3.41.02-.77.5-1.63.25-2.44.28-1.36.05-1.38.02-1.38,1.33Z" fill="#1a3c6b"/>
        <path d="M269.55,172.19v8.38c-.11.09-.08.23-.14.34,0,.02,0,.03-.02.05-.36,1-1.13,1.44-2.14,1.49-.25.02-.5,0-.75,0H112.66c-.5,0-.99-.02-1.49-.03-.03-.02-.06-.03-.06-.06v-.02s.02-.02.02-.03c.03-.03.05-.05.06-.05,7.21-.77,14.33-2.03,21.27-4.11,9.48-2.82,18.38-6.85,26.48-12.53,6.76-4.72,12.64-10.34,17.22-17.25,3.46-5.22,6.01-10.86,7.27-17.02.8-3.86.97-7.74.74-11.67-.23-4.05-.88-8.03-2.13-11.89-3.47-10.65-10.15-18.58-20.24-23.56-1.02-.52-2.08-.95-3.19-1.27-1.85-.53-2.99-.06-3.88,1.61-.83,1.6-1.19,3.33-1.56,5.05-.78,3.64-1.42,7.32-1.64,11.04-.08,1.49-.13,2.99.08,4.47.05.36.14.63.42.86,5.48,4.63,8.82,10.51,10.32,17.47,1.28,5.96.61,11.67-1.96,17.18-1.6,3.39-3.57,6.54-5.96,9.42-.16.19-.34.36-.52.53-.05-.05-.11-.08-.16-.14-1.42-1.08-2.58-2.41-3.8-3.72-.03-.03-.06-.08-.08-.13v-.02s-.02-.09-.02-.16c-.02-.05,0-.09,0-.14.44-1.14,1.47-1.81,2.19-2.74.99-1.33,2.02-2.61,2-4.4,0-1.25-.33-2.41-.91-3.49-3.39-6.54-4.96-13.64-6.38-20.77-.56-2.78-.99-5.58-1.27-8.38-.3-3.13-.33-6.26-.11-9.4.28-4.22,1.11-8.31,2.46-12.3,1.85-5.49,4.76-10.37,8.59-14.72,6.46-7.32,14.55-12.14,23.59-15.49,6.01-2.22,12.22-3.63,18.55-4.41,2.93-.36,5.87-.69,8.82-.64,1.74.03,3.46-.05,5.19-.03,6.19.08,12.26,1.02,18.24,2.53,6.38,1.61,12.48,4.04,18.32,7.07,6.77,3.52,13.08,7.77,18.71,12.98.3.27.61.52.92.77.36.31.61.67.66,1.11.02.05.02.08.02.13,0,.08,0,.16-.02.23v90.67c.02.08,0,.16-.02.22v.06c-.08.41-.45.61-.81.81-2.74,1.55-5.63,2.77-8.59,3.82-7.54,2.69-15.31,4.24-23.28,4.96-3.54.31-7.06.59-10.61.52-7.12-.14-14.11-1.16-20.93-3.22-7.46-2.27-14.53-5.43-21.17-9.59-1.64-1.03-3.38-1.97-5.26-2.58-1.42-.45-2.68-.38-3.94.59-3.27,2.46-6.73,4.68-9.64,7.62-1.67,1.67-1.61,2.22.47,3.39,3.3,1.83,6.87,3.05,10.47,4.16,7.43,2.3,15.05,3.83,22.76,4.83,4.07.53,8.13.94,12.25,1.05,1.61.03,3.22.16,4.83.14,5.22-.03,10.42-.48,15.58-1.19,11.25-1.52,22.23-4.18,33.13-7.21,1.28-.36,2.57-.77,3.85-1.13.33-.09.64-.27.99-.09Z" fill="#1a3c6b"/>
        <path d="M141.65,1.67v51.67c0,2.08-.05,2.13-2.14,2.13-1.89,0-3.79.02-5.68,0-1.16-.02-1.3-.17-1.27-1.31.19-6.7.28-13.42.16-20.13-.03-2.5,0-5.04-.45-7.51-.7-3.88-2.94-6.82-5.87-9.26-5.38-4.46-11.73-6.65-18.55-7.67-3.25-.48-6.51-.48-9.76-.34-5.58.23-11.09,1-16.32,3.11-3.24,1.31-6.24,3.03-8.38,5.87-3.38,4.47-4.13,9.48-2.66,14.85.94,3.41,2.85,6.24,5.19,8.84,4.16,4.55,9.21,7.93,14.56,10.89,7.26,4.02,14.92,7.1,22.62,10.12,3.97,1.56,8.12,2.58,12.19,3.82,1.22.38,2.44.74,3.58,1.35,1.94,1.05,2.49,2.61,1.55,4.6-.89,1.86-2.14,3.5-3.38,5.15-2.24,2.99-4.71,5.79-7.59,8.18-.27.22-.55.41-.81.63-1.39,1.1-2.85,1.24-4.55.67-4.41-1.5-8.73-3.27-13.03-5.05-5.94-2.47-11.87-4.97-17.65-7.84-6.54-3.25-12.58-7.27-18.05-12.12-4.24-3.75-8.04-7.87-10.9-12.8-2.66-4.6-4.29-9.53-4.32-14.88-.05-6.49,2.1-12.25,6.05-17.35,3.61-4.65,8.21-8.09,13.38-10.83,5.1-2.69,10.48-4.57,16.1-5.77.48-.09.95-.19,1.42-.28h.02c.42-.06.83-.13,1.25-.17.05,0,.11-.02.16-.02C88.99.19,89.46.2,89.91,0c-.39.31-.84.36-1.31.36-4.25.75-8.43,1.83-12.48,3.38-5.52,2.11-10.65,4.91-15.13,8.84-3.75,3.3-6.77,7.16-8.67,11.84-1.5,3.72-2.14,7.59-1.89,11.58.3,5.1,2.02,9.76,4.66,14.09,2.69,4.38,6.07,8.17,9.9,11.58,6.59,5.84,13.91,10.53,21.92,14.14,8.07,3.64,16.18,7.18,24.47,10.28,1.14.42,2.3.77,3.44,1.16,1.08.39,2.06.19,3.02-.39.8-.48,1.55-1.05,2.24-1.67,3.83-3.46,7.01-7.48,9.71-11.86.23-.36.42-.75.59-1.16.58-1.36.23-2.57-.97-3.46-.59-.45-1.28-.74-1.99-.99-1.89-.7-3.85-1.25-5.8-1.75-5.13-1.28-10-3.35-14.89-5.32-5.88-2.35-11.65-4.94-17.18-8.07-4.46-2.52-8.68-5.35-12.34-8.95-2.64-2.58-4.88-5.46-6.24-8.95-1.8-4.61-1.56-9.18.39-13.69,1.09-2.55,2.94-4.51,5.18-6.12,2.89-2.06,6.16-3.33,9.57-4.21,4.36-1.14,8.79-1.63,13.28-1.71,3.24-.06,6.48,0,9.67.56,6.34,1.09,12.23,3.25,17.29,7.35,1.03.83,1.94,1.75,2.8,2.74,2.42,2.83,3.55,6.12,3.68,9.84.2,5.52.22,11.06.16,16.58-.03,2.8-.14,5.6-.22,8.4-.02.72-.03.72.67.72,2.35.02,4.68.02,7.01.02q.89-.02.89-.94V1.92c0-1.08.11-1.02-.99-1.02h-6.26c-1.08,0-1.02-.13-1.02.99v3.71c-.33.14-.53-.02-.75-.11-6.1-2.28-12.39-3.8-18.83-4.76-.83-.13-1.66-.25-2.49-.38-.58.08-1.11-.16-1.67-.19C109.16.22,109.03.16,108.94,0c.09.09.2.11.31.11h.22c.53-.02,1.03.14,1.56.09.06,0,.13.02.19.02h.02c.44.05.86.09,1.28.16h.08c5.04.63,9.96,1.77,14.85,3.19,1.53.45,3.03.94,4.51,1.53.66.27.83.06.81-.58-.03-.94,0-1.86,0-2.8,0-.69.31-1.03,1.02-1.03h6.9c.66.02.97.33.97.99Z" fill="#1a3c6b"/>
        <path d="M269.45,73.99s.08.03.09.08c-.03.03-.05.05-.08.05-.05.02-.06-.03-.08-.11-.31-.59-.84-.99-1.33-1.41-7.52-6.88-16.02-12.25-25.39-16.24-6.46-2.75-13.16-4.68-20.09-5.76-5.55-.86-11.14-1.05-16.74-.77-9.48.45-18.73,2.19-27.58,5.73-6.27,2.5-12.09,5.79-17.19,10.26-7.6,6.68-12.53,14.94-14.58,24.87-.88,4.27-1.25,8.62-.92,12.97.72,9.67,2.64,19.1,6.09,28.2.34.92.77,1.83,1.25,2.71.38.7.74,1.44,1.02,2.19.75,2.05.55,3.96-.77,5.74-.74,1-1.55,1.94-2.38,2.86-.28.33-.55.67-.83,1-.02.08-.03.16-.06.22v.02c-.08.22-.22.39-.39.56-1.63,1.58-3.14,3.27-4.8,4.82-2.77,2.58-6.57,2.78-9.45-.22-4.22-4.41-7.31-9.54-9.71-15.13-2.3-5.32-3.71-10.87-4.29-16.63-.72-7.04-.08-13.94,2.1-20.71,3.21-9.96,8.29-18.87,15.11-26.77,4.55-5.3,9.73-9.95,15.49-13.92,10.37-7.16,21.84-11.78,34.1-14.45,4.76-1.05,9.54-1.74,14.38-2.19,2.61-.25,5.26-.41,7.88-.45,1.99-.05,3.97-.2,5.96-.16,9.93.19,19.77,1.16,29.44,3.54,8.09,2,15.85,4.88,23.21,8.81.02.02.05.02.06.05.06.02.13.05.17.11.16.11.3.25.39.44-.2-.11-.42-.17-.58-.38-1.14-.55-2.27-1.11-3.43-1.66-8.32-4-17.05-6.77-26.14-8.46-4.24-.78-8.53-1.33-12.83-1.67-4.52-.38-9.06-.55-13.59-.47-11.58.22-22.96,1.67-34.06,5.16-11.78,3.71-22.53,9.32-31.88,17.46-10.5,9.14-18.26,20.18-22.87,33.35-1.52,4.33-2.67,8.76-2.88,13.34-.61,13.94,3.08,26.59,11.59,37.75.81,1.05,1.72,2.03,2.64,3,2.93,3.05,6.57,2.36,9.06.08,1.69-1.55,3.25-3.25,4.82-4.93.14-.14.31-.28.47-.44-.02-.05,0-.09,0-.14.44-1.14,1.47-1.81,2.19-2.74.99-1.33,2.02-2.61,2-4.4,0-1.25-.33-2.41-.91-3.49-3.39-6.54-4.96-13.64-6.38-20.77-.56-2.78-.99-5.58-1.27-8.38-.3-3.13-.33-6.26-.11-9.4.28-4.22,1.11-8.31,2.46-12.3,1.85-5.49,4.76-10.37,8.59-14.72,6.46-7.32,14.55-12.14,23.59-15.49,6.01-2.22,12.22-3.63,18.55-4.41,2.93-.36,5.87-.69,8.82-.64,1.74.03,3.46-.05,5.19-.03,6.19.08,12.26,1.02,18.24,2.53,6.38,1.61,12.48,4.04,18.32,7.07,6.77,3.52,13.08,7.77,18.71,12.98.3.27.61.52.92.77.36.31.61.67.66,1.11Z" fill="#1a3c6b"/>
        <path d="M269.55,172.19c-2.42.84-4.91,1.5-7.4,2.19-7.06,1.96-14.17,3.68-21.37,5.01-5.71,1.06-11.45,1.92-17.25,2.38-5.49.42-10.98.34-16.47-.05-7.15-.5-14.2-1.56-21.18-3.11-5.3-1.17-10.53-2.63-15.61-4.57-1.67-.66-3.33-1.36-4.88-2.3-.53-.31-1.05-.66-1.47-1.13-.31-.34-.36-.7-.09-1.1.36-.52.75-1,1.19-1.44,1.83-1.88,3.93-3.44,6.02-4.99,1.45-1.08,2.93-2.1,4.38-3.18.56-.41,1.17-.53,1.85-.48.94.06,1.81.38,2.67.74,1.92.8,3.71,1.89,5.49,2.96,9.21,5.55,19.1,9.34,29.74,11.08,5.19.84,10.43,1.11,15.71.86,9.7-.45,19.19-1.94,28.41-5.12,3.22-1.11,6.37-2.42,9.35-4.1.27-.16.56-.23.75-.52v-.02s.05-.06.06-.06c.03-.03.06-.02.11.05-.03.02-.06.02-.11.02-.08.41-.45.61-.81.81-2.74,1.55-5.63,2.77-8.59,3.82-7.54,2.69-15.31,4.24-23.28,4.96-3.54.31-7.06.59-10.61.52-7.12-.14-14.11-1.16-20.93-3.22-7.46-2.27-14.53-5.43-21.17-9.59-1.64-1.03-3.38-1.97-5.26-2.58-1.42-.45-2.68-.38-3.94.59-3.27,2.46-6.73,4.68-9.64,7.62-1.67,1.67-1.61,2.22.47,3.39,3.3,1.83,6.87,3.05,10.47,4.16,7.43,2.3,15.05,3.83,22.76,4.83,4.07.53,8.13.94,12.25,1.05,1.61.03,3.22.16,4.83.14,5.22-.03,10.42-.48,15.58-1.19,11.25-1.52,22.23-4.18,33.13-7.21,1.28-.36,2.57-.77,3.85-1.13.33-.09.64-.27.99-.09Z" fill="#1a3c6b"/>
        <path d="M82.14,182.34v.02s-.03.06-.05.06c-.44.02-.88.03-1.31.03-22.46,0-44.93,0-67.39.02-1.13,0-2-.31-2.57-1.33-.05-.06-.09-.13-.13-.19-.08-.13-.14-.27-.25-.38v-51.48c.38.55.3,1.19.34,1.8.83,11.97,5.44,22.2,14.09,30.57,4.43,4.29,9.54,7.63,15.05,10.36,6.91,3.43,14.19,5.79,21.7,7.45,5.62,1.25,11.28,2.13,17,2.67,1.14.11,2.28.22,3.43.34.05.02.08.03.08.06Z" fill="#1a3c6b"/>
        <path d="M266.48,209.45c-.8,0-.81.02-.81.83,0,2.66.02,5.33,0,8.01-.02,2.06-1.49,3.5-3.54,3.54-1.56.02-3.11-.02-4.68,0-.44.02-.69-.06-.67-.58.02-.5-.05-1-.06-1.5-.06-1.91-.33-3.77-1.16-5.51-1.11-2.38-2.89-3.93-5.48-4.49-1.64-.34-3.27-.27-4.88.23-2.68.83-4.76,2.5-6.62,4.51-.16.17-.23.45-.48.44,0-1.24-.02-2.44.02-3.64.06-2.49.16-4.97.23-7.46v-.28c.02-.31-.14-.44-.45-.44h-3.16c-.36-.02-.5.14-.48.48.02.22,0,.44,0,.66v16.6c0,1.06.13.99-1.02.99h-27.88c-1.67-.11-3.05-1.42-3.21-3.1-.03-.36-.02-.74-.02-1.11-.02-4.47,0-8.95-.02-13.44v-.64c.02-.33-.14-.44-.45-.44h-2.99c-.34-.02-.52.13-.5.48.02.19,0,.38,0,.55v15.77c0,.38,0,.75.05,1.11.23,2.19,1.72,3.93,3.85,4.57.7.22,1.41.19,2.13.19,19.79.02,39.59.02,59.38,0,.44,0,.88.02,1.31-.03,2.16-.19,4.1-1.96,4.49-4.1,0-.02.02-.02.02-.03.11-.17-.02-.41.14-.55v-11.56c-1.02-.02-2.05-.05-3.07-.05ZM237.79,221.76c0-.06-.03-.14,0-.19,1.17-2.57,2.74-4.87,5.04-6.57,1.55-1.14,3.29-1.71,5.22-1.6,1.83.11,3.18.97,3.96,2.63.8,1.64.92,3.39.86,5.18-.02.47-.19.63-.67.63-2.24-.03-4.47-.02-6.71-.02h-6.79c-.3,0-.61.06-.91-.06Z" fill="#1a3c6b"/>
        <path d="M27.76,248.51c-2.42-3.14-5.69-4.35-9.54-3.71-3.32.55-5.74,2.39-7.07,5.55-.2.49-.33.99-.5,1.49-.02.02-.03.03-.05.06h-.02c-.09.14.03.36-.14.48v21.09c1.56-.02,3.11-.03,4.66-.02.44,0,.64-.13.59-.58-.02-.19,0-.38,0-.56v-8.29c0-.78,0-.8.72-.8,2.36-.02,4.72-.02,7.09,0,.7,0,.72.02.72.72v8.93c0,.3,0,.58.42.56h4.29c.27,0,.39-.14.38-.39v-19.85c.02-1.75-.5-3.33-1.55-4.69ZM24.23,258.35c0,.64-.02.64-.7.66h-6.99c-.83,0-.83-.02-.83-.89,0-1.55-.02-3.11,0-4.66,0-1.92,1.1-3.41,2.96-3.93,1.75-.48,3.33-.13,4.6,1.24.61.66.95,1.45.97,2.36.02,1.74,0,3.49,0,5.22Z" fill="#1a3c6b"/>
        <path d="M269.55,267.5c-.14.16-.09.34-.09.5v.14c-.02.22.05.44-.05.64,0,.02-.02.02-.02.03-.41,2.75-2.33,4.47-5.07,4.49-3.85.02-7.7,0-11.54,0-.77,0-.78,0-.78-.74,0-.81-.02-1.63,0-2.42.02-.7.02-.72.74-.72h8.1c.75,0,1.5.02,2.24-.05.7-.06,1.33-.33,1.63-1.05.41-1-.05-1.99-1.1-2.28-.53-.16-1.09-.22-1.66-.2h-5.04c-.89-.02-1.78-.11-2.66-.39-1.22-.39-2.02-1.2-2.35-2.42-.41-1.5-.41-3.02.02-4.52.48-1.69,1.63-2.74,3.29-3.27.89-.28,1.81-.41,2.75-.41h9.87c.75,0,.75.02.77.78v2.24q0,.88-.94.88h-7.82c-.66,0-1.31-.02-1.96.16-.83.23-1.25.77-1.22,1.63.02.74.44,1.2,1.25,1.39.42.09.84.14,1.3.14,1.52-.02,3.03,0,4.55,0,1.11,0,2.17.16,3.18.61,1.36.63,2.25,1.64,2.46,3.16v.03h.02c.08.14.05.33.05.48v.11c0,.17-.03.36.09.5v.56Z" fill="#1a3c6b"/>
        <path d="M41.92,214.88c.08,1.05-.02,2.11-.19,3.14-1.13,6.8-6.37,12.03-13.19,13.05-8.29,1.24-15.71-4.19-17.54-11.9-.06-.3-.14-.59-.2-.91-.05-.17-.09-.34-.14-.52-.06-.33-.13-.66-.22-.97v-2.42c1.33-.19,2.67-.05,4-.09.36,0,.48.13.47.5-.09,1.31.02,2.6.38,3.86,1.36,4.83,5.58,7.76,9.59,8.28,5.24.67,11.25-2.74,12.56-9.2.11-.55.17-1.11.2-1.66.03-.56,0-1.11,0-1.77,1.27,0,2.57-.02,3.86,0,.39,0,.39.33.41.61Z" fill="#1a3c6b"/>
        <path d="M267.7.11s0,.05-.02.06c0,.06-.05.11-.11.14-.63.28-1.28.17-1.94.17-40.02.02-80.05.02-120.08.02-10.12,0-20.26-.02-30.38,0-.86,0-1.72-.08-2.58-.13h-.08c-.5-.03-1.02-.05-1.52-.02-.58.08-1.11-.16-1.67-.19-.03-.02-.06-.03-.06-.06h-.02v-.05S109.3,0,109.31,0h158.37s.02.08.02.11Z" fill="#1a3c6b"/>
        <path d="M10.82,120.16v.02c0,.16,0,.3.02.44,0,.11.02.2.02.3v.03c.08.3.02.58-.05.88-.23.28.09.74-.17,1-.03.05-.09.09-.19.13V1.88c.11-.14.2-.22.3-.22.02,0,.03,0,.05.02.06.03.13.11.17.23.06.88-.03,1.74-.03,2.61.02,37.43,0,74.88.02,112.32,0,.89-.09,1.77-.11,2.66-.02.22-.03.44-.02.66Z" fill="#1a3c6b"/>
        <path d="M269.55,74.07v91.22s-.06.02-.11.02c-.02.02-.05.02-.06.02v-1.13c-.02-29.66-.02-59.32,0-88.98,0-.41.02-.81.02-1.2.02-.02.05-.02.06-.02.05.02.08.03.09.08Z" fill="#1a3c6b"/>
        <path d="M269.55,202.96v4.11c-1.11-.02-2.21-.03-3.32-.05-.72-.02-.74-.02-.74-.7-.02-.89-.02-1.8,0-2.69,0-.67,0-.69.64-.69,1.14-.02,2.27.02,3.41.02Z" fill="#1a3c6b"/>
        <path d="M89.91,0c-.39.31-.84.36-1.31.36-.5-.03-1-.02-1.5.03h-.02c-.67.05-1.33.11-2,.11-23.54,0-47.09,0-70.63-.02-.61,0-1.25.11-1.85-.17-.06-.03-.09-.08-.11-.14-.02-.02-.02-.05-.02-.06C12.5.08,12.5.05,12.5,0h77.42Z" fill="#1a3c6b"/>
        <path d="M269.55,1.88v52.42c-.2-.11-.42-.17-.58-.38,0-.06.02-.11.02-.17.08-.83.08-1.67.08-2.52V3.72c0-.58-.08-1.17.19-1.74.03-.06.08-.11.13-.11.05-.03.11-.02.17,0Z" fill="#1a3c6b"/>
        <path d="M199.98,280h-4.85v-.19c.06-.03.11-.08.17-.09.7-.38,1.5-.16,2.25-.19,2.11-.05,1.92.2,1.94-1.97,0-1.11-.03-2.22.02-3.33.02-.31-.11-.78.38-.89.03-.02.06-.03.11-.03-.11,2.24-.06,4.46-.02,6.7Z" fill="#1a3c6b"/>
        <path d="M10.79,1.62c-.11.08-.23.17-.34.25V0h1.68s.07.09.07.14c0,.06,0,.08-.02.08-.48.44-.95.9-1.39,1.39Z" fill="#1a3c6b"/>
        <path d="M269.55,1.87c-.06,0-.11-.02-.17-.04-.32-.65-.86-1.11-1.37-1.6-.03-.09-.01-.17.05-.23h1.49v1.87Z" fill="#1a3c6b"/>
        <path d="M10.45,124.43v-1.49c.19-.16.19-.36.19-.56v-.16c.02-.16.03-.3.17-.41-.03.89.17,1.8-.36,2.61Z" fill="#1a3c6b"/>
        <path d="M10.81,218.26c-.22-.13-.11-.45-.36-.56v-.92c.22.33.33.7.34,1.08.03.13.03.27.02.41Z" fill="#1a3c6b"/>
        <path d="M10.82,181.13c-.13-.06-.25-.13-.38-.19v-.38c.22.08.33.22.36.41.02.05.02.09.02.16Z" fill="#1a3c6b"/>
        <path d="M269.55,268.06v.75h-.16v-.72s.03-.08.06-.09c.03,0,.06.02.09.06Z" fill="#1a3c6b"/>
        <path d="M269.55,221.06v.56s-.09.02-.16.02v-.03c-.03-.2-.08-.41.16-.55Z" fill="#1a3c6b"/>
        <path d="M10.67,251.9c.05.2-.02.38-.22.48v-.55h.2s.02.05.02.06Z" fill="#1a3c6b"/>
        <path d="M269.55,265.83v.56s-.06.06-.09.05c-.03,0-.05-.03-.08-.08.02-.16.02-.34.02-.52v-.03c.06-.02.11,0,.16.02Z" fill="#1a3c6b"/>
        <path d="M269.38,266.36c.06.02.12.03.18.02v.56c-.22-.14-.19-.37-.18-.58Z" fill="#1a3c6b"/>
        <path d="M269.55,268.06c-.06.01-.11.02-.17.03-.02-.22-.06-.44.17-.59v.56Z" fill="#1a3c6b"/>
        <path d="M269.55,180.57v.38s-.11.02-.16.02c0-.02-.02-.03,0-.05-.03-.14-.03-.28.16-.34Z" fill="#1a3c6b"/>
        <path d="M268.06,0c-.01.06,0,.12,0,.18-.12.1-.23.1-.34-.02-.01-.05-.02-.11-.03-.16h.37Z" fill="#1a3c6b"/>
        <path d="M109.33.11v.06C109.16.22,109.03.16,108.94,0h.38s0,.08.02.11Z" fill="#1a3c6b"/>
        <path d="M12.13.19c.01-.06.01-.12,0-.18h.37c0,.05-.02.11-.03.16-.11.12-.22.11-.34.02Z" fill="#1a3c6b"/>
        <path d="M269.38,1.83v1.22c-.02,16.54-.02,33.07-.02,49.61v.84c0,.19-.08.31-.2.36-.06.03-.11.05-.19.06-1.14-.55-2.27-1.11-3.43-1.66-8.32-4-17.05-6.77-26.14-8.46-4.24-.78-8.53-1.33-12.83-1.67-4.52-.38-9.06-.55-13.59-.47-11.58.22-22.96,1.67-34.06,5.16-11.78,3.71-22.53,9.32-31.88,17.46-10.5,9.14-18.26,20.18-22.87,33.35-1.52,4.33-2.67,8.76-2.88,13.34-.61,13.94,3.08,26.59,11.59,37.75.81,1.05,1.72,2.03,2.64,3,2.93,3.05,6.57,2.36,9.06.08,1.69-1.55,3.25-3.25,4.82-4.93.14-.14.31-.28.47-.44.03-.02.05-.03.08-.06.25.52.74.83,1.11,1.24.89.95,1.91,1.78,2.72,2.82.05.05.09.11.14.17-1.25,1.67-2.75,3.11-4.27,4.54-5.24,4.88-11.23,8.59-17.77,11.47-6.63,2.93-13.55,4.83-20.7,5.98-6.65,1.06-13.34,1.44-20.07,1.27-10.75-.27-21.26-1.96-31.36-5.77-7.98-3-15.31-7.1-21.71-12.8-5.26-4.69-9.59-10.07-12.58-16.49-1.89-4.05-3.18-8.29-3.44-12.78-.31-5.35.42-10.54,2.68-15.44,2.77-5.99,7.26-10.32,13.03-13.38,4.08-2.16,8.43-3.46,12.95-4.29,4.94-.89,9.93-1.16,14.94-.91,5.41.28,10.73,1.16,15.77,3.33,3.35,1.45,6.34,3.41,8.73,6.21,1.85,2.17,3.08,4.65,3.61,7.46.5,2.64-.03,4.99-1.8,7.04-1.3,1.53-2.83,2.78-4.51,3.88-3.5,2.28-7.31,3.97-11.26,5.32-.38.13-.78.16-1.17.28-1.02.3-1.47.94-1.47,1.99,0,.84.28,1.6.92,2.16.81.74,1.74,1.3,2.85,1.5,2.57.48,5.18.61,7.79.63,4.33.03,8.62-.38,12.81-1.58,3.02-.88,5.82-2.16,8.23-4.21,3.54-2.97,5.24-6.84,5.46-11.42.38-8.18-3.1-14.58-9.15-19.79-3.6-3.1-7.71-5.32-12.08-7.12-5.68-2.35-11.59-3.83-17.68-4.69-4.63-.66-9.28-.83-13.94-.52-7.73.55-15.27,2-22.45,5.01-5.18,2.14-9.93,4.99-13.97,8.92-5.49,5.33-8.95,11.78-10.56,19.24-.19.88-.36,1.75-.55,2.63-.25.38,0,.81-.19,1.19.05.11.05.22-.02.31-.22.36.02.78-.16,1.14v.03c-.06-.05-.11-.11-.14-.17-.06-.09-.08-.2-.08-.33v-.92c0-37.33,0-74.63.02-111.96,0-1.96-.14-3.93.14-5.88v-.05c.16-.77.7-1.14,1.33-1.44h.08c.09,0,.19-.02.27-.02h.03c.39,0,.8.02,1.19.02,24.58,0,49.17,0,73.74.02.31,0,.63-.09.92.02.09.03.17.08.25.14-4.25.75-8.43,1.83-12.48,3.38-5.52,2.11-10.65,4.91-15.13,8.84-3.75,3.3-6.77,7.16-8.67,11.84-1.5,3.72-2.14,7.59-1.89,11.58.3,5.1,2.02,9.76,4.66,14.09,2.69,4.38,6.07,8.17,9.9,11.58,6.59,5.84,13.91,10.53,21.92,14.14,8.07,3.64,16.18,7.18,24.47,10.28,1.14.42,2.3.77,3.44,1.16,1.08.39,2.06.19,3.02-.39.8-.48,1.55-1.05,2.24-1.67,3.83-3.46,7.01-7.48,9.71-11.86.23-.36.42-.75.59-1.16.58-1.36.23-2.57-.97-3.46-.59-.45-1.28-.74-1.99-.99-1.89-.7-3.85-1.25-5.8-1.75-5.13-1.28-10-3.35-14.89-5.32-5.88-2.35-11.65-4.94-17.18-8.07-4.46-2.52-8.68-5.35-12.34-8.95-2.64-2.58-4.88-5.46-6.24-8.95-1.8-4.61-1.56-9.18.39-13.69,1.09-2.55,2.94-4.51,5.18-6.12,2.89-2.06,6.16-3.33,9.57-4.21,4.36-1.14,8.79-1.63,13.28-1.71,3.24-.06,6.48,0,9.67.56,6.34,1.09,12.23,3.25,17.29,7.35,1.03.83,1.94,1.75,2.8,2.74,2.42,2.83,3.55,6.12,3.68,9.84.2,5.52.22,11.06.16,16.58-.03,2.8-.14,5.6-.22,8.4-.02.72-.03.72.67.72,2.35.02,4.68.02,7.01.02q.89-.02.89-.94V1.92c0-1.08.11-1.02-.99-1.02h-6.26c-1.08,0-1.02-.13-1.02.99v3.71c-.33.14-.53-.02-.75-.11-6.1-2.28-12.39-3.8-18.83-4.76-.83-.13-1.66-.25-2.49-.38.06-.06.14-.11.22-.14h.02c.2-.08.44-.02.66-.02,1.14-.02,2.3-.02,3.44-.02h151.08c.42,0,.84-.02,1.27-.02h.03c.11,0,.19,0,.28.02h.06c.7.34,1.31.75,1.31,1.64Z" fill="#1a3c6b"/>
        <path d="M134.36,211.04c.02-2.86.02-5.73.02-8.59,0-1.2-.02-2.42-.02-3.63,0-.94.06-.89-.83-.89-.72.02-1.42,0-2.14.02-1.08,0-1-.13-1,1v19.87c0,.22-.02.44,0,.66.05.41-.14.53-.53.53-2.14-.02-4.29-.02-6.45,0-.38,0-.56-.11-.55-.53.03-.39,0-.8,0-1.2,0-2.74.02-5.48,0-8.21,0-.72-.02-.72-.7-.74h-2.33c-1.03,0-.99-.09-.99.94.02,2.86.02,5.73,0,8.57-.02,1.78-1.61,3.3-3.39,3.29-1.83-.02-3.3-1.49-3.3-3.33-.02-2.77-.02-5.52-.02-8.29,0-.22-.02-.44,0-.66.05-.42-.17-.53-.55-.52-.97.02-1.94.02-2.89,0-.34-.02-.53.09-.52.47.02.22,0,.44,0,.66,0,2.78.02,5.58-.02,8.38-.02,1.81-1.55,3.29-3.38,3.29s-3.32-1.5-3.33-3.3c-.02-.59-.02-1.17-.02-1.77,0-2.33.02-4.66,0-6.99,0-.72-.02-.72-.72-.74-.89,0-1.8.02-2.71,0-.42-.02-.63.09-.59.56.03.5,0,1,0,1.5v7.92c0,.33.11.7-.45.7-2.24-.02-4.47-.02-6.73,0-.36,0-.5-.14-.48-.5.02-.22.02-.44.02-.66v-19.77c0-.22-.02-.44,0-.66.02-.34-.14-.48-.5-.48-.74.02-1.49,0-2.24,0q-1.24,0-1.24,1.22v19.96c0,.88-.02.88-.84.89h-5.79c-.8,0-.81-.02-.97-.77-1.35-6.1-7.32-10.54-13.78-9.59-5.18.77-8.6,3.74-10.32,8.68-.19.52-.08,1.24-.5,1.55-.44.34-1.14.11-1.72.11-1.13.02-2.24.02-3.36.02q-.88-.02-.88-.84c-.02-.16,0-.31,0-.47v-15.21c0-1.58,0-3.18-.02-4.76q0-.78-.74-.78c-.84-.02-1.67-.02-2.52,0-.7,0-.72,0-.72.7v24.62c0,.75.02.75.77.75,2.74.02,5.48.02,8.21.02q1.05,0,1.3,1.03c1.3,5.13,5.82,8.98,11.06,9.39,6.16.48,11.75-3.58,13.2-9.64q.19-.78.94-.78c6.62,0,13.25,0,19.87-.02.45,0,.81.11,1.17.41,2.86,2.25,6.66,2.17,9.43-.16q.55-.45,1.1.02c2.78,2.3,6.55,2.39,9.37.19.42-.34.83-.45,1.35-.45,3.96.02,7.9.02,11.86.02.22,0,.44-.03.64,0,.39.03.48-.17.48-.52-.02-.17-.02-.36-.02-.55v-11.94ZM66.06,230.46c-4.74.02-8.49-3.69-8.49-8.42-.02-4.74,3.71-8.45,8.42-8.49,4.82-.06,8.49,4.07,8.51,8.42.03,4.4-3.58,8.51-8.43,8.49Z" fill="#1a3c6b"/>
        <path d="M191.96,252.75c-1.11-3.55-3.33-6.04-6.87-7.31-2.27-.81-4.61-.97-6.98-1.03-1.1-.03-2.17.08-3.25.19-.86.09-1.72.28-2.55.52-4.05,1.13-6.79,3.6-8.01,7.68-.83,2.72-.92,5.49-.72,8.31.16,1.89.55,3.74,1.33,5.49,1.03,2.25,2.61,3.97,4.83,5.1,1.66.84,3.43,1.31,5.26,1.5,3.18.31,6.34.28,9.42-.66,3.86-1.17,6.4-3.68,7.56-7.56.5-1.67.74-3.39.78-5.15.05-2.39-.08-4.77-.8-7.09ZM186.09,264.92c-1.06,2.67-3.02,4.27-5.85,4.76-1.67.3-3.35.28-4.99-.14-2.53-.67-4.21-2.3-5.15-4.72-.47-1.27-.7-2.58-.83-3.91-.2-2.46-.13-4.9.66-7.27,1.14-3.47,3.8-5.46,7.45-5.54,1.03-.03,2.05-.05,3.07.16,3.03.61,4.99,2.38,5.91,5.3.55,1.74.69,3.54.7,5.51-.02,1.89-.19,3.93-.97,5.87Z" fill="#1a3c6b"/>
        <path d="M110.74,259.91c.03,4.25.02,8.53,0,12.78q0,.75-.78.75c-.91.02-1.8.02-2.71,0-.72,0-.72-.02-.74-.7-.02-.19,0-.38,0-.56,0-3.82-.08-7.65.02-11.47.06-2.08-2.16-3.47-4.05-2.55-1.05.52-1.53,1.36-1.53,2.55.02,3.88,0,7.76,0,11.64v.66c.02.31-.13.45-.44.45-1.1-.02-2.17-.02-3.27,0-.3,0-.47-.11-.45-.44,0-.23-.02-.48-.02-.74,0-3.83.02-7.65,0-11.47,0-1.55-.77-2.52-2.13-2.88-1.47-.39-3.5.66-3.44,2.66.05,2.05,0,4.1,0,6.15v5.79q0,.91-.91.91c-.91.02-1.8-.02-2.71.02-.48.02-.64-.16-.64-.64.03-2.21.02-4.41.02-6.62,0-2.05.03-4.1,0-6.16-.08-4.19,3.41-6.59,6.45-6.74,1.81-.08,3.47.28,4.91,1.39.45.36.7.27,1.11-.03,1.97-1.42,4.18-1.71,6.48-1.06,2.94.81,4.82,3.27,4.83,6.32Z" fill="#1a3c6b"/>
        <path d="M57.58,266.58c-.08,3.29-2.61,6.13-5.94,6.71-.61.11-1.22.17-1.85.17-1.41-.02-2.8-.02-4.21-.02-1.61,0-3.22.02-4.85,0-.7,0-.72-.02-.72-.72-.02-1.16-.02-2.3,0-3.46,0-.66.02-.67.69-.67h8.48c.69,0,1.38-.06,2.02-.3,1.03-.36,1.42-.97,1.36-2.05-.09-1.39-.66-2.58-1.64-3.55-.69-.69-1.47-1.24-2.28-1.75-1.3-.81-2.64-1.53-3.88-2.42-1.33-.95-2.49-2.08-3.11-3.63-2.16-5.35,1.56-10.15,6.7-10.26,2.64-.05,5.29-.02,7.93,0,.64,0,.66.02.66.69.02,1.13,0,2.24,0,3.36,0,.75-.02.77-.75.77-2.11.02-4.22.02-6.34,0-.56,0-1.13.05-1.67.17-1.08.23-1.63.95-1.61,2.08.02.84.39,1.55.94,2.17.58.66,1.28,1.19,2,1.67,1.05.72,2.11,1.42,3.14,2.14.92.64,1.77,1.38,2.52,2.22,1.71,1.89,2.47,4.15,2.42,6.66Z" fill="#1a3c6b"/>
        <path d="M212.97,260.65c-.88-2.91-2.8-4.76-5.77-5.49-.97-.23-1.96-.33-2.96-.33h-8.1c-1.13.02-1.05-.16-1.05,1.05-.02,7.67-.02,15.35,0,23.01,0,.31.03.61.05.92h.11c1.24,0,2.46.02,3.71,0,.56,0,.75,0,.8-.3.03-.11.03-.28.03-.53,0-1.61,0-3.22.02-4.83,0-.22-.08-.45.02-.66.03-.06.09-.13.19-.19h4.29c.81,0,1.61-.08,2.41-.2,3.43-.58,5.69-2.64,6.45-5.99.48-2.16.45-4.33-.17-6.46ZM199.93,268.71v-9.21c0-.34.02-.61.47-.59,1.49.05,2.99-.08,4.47.17,1.89.31,2.82,1.13,3.18,3,.3,1.44.3,2.89-.03,4.35-.38,1.69-1.33,2.55-3.07,2.75-1.49.16-2.99.16-4.47.16-.48,0-.56-.22-.55-.63Z" fill="#1a3c6b"/>
        <path d="M131.17,263.04v9.32c0,.22-.02.44,0,.66,0,.33-.16.44-.47.44-1.2-.02-2.42-.02-3.63,0-.42,0-.55-.2-.53-.58.02-.2,0-.42,0-.64,0-2.71-.02-5.41.02-8.12,0-.75-.09-1.49-.27-2.21-.69-2.97-3.77-4.63-6.38-3.38-1.99.94-2.88,2.64-2.86,4.76.03,2.11.99,3.8,2.99,4.66,1.69.72,3.29.41,4.69-.78.23-.19.38-.48.69-.59.17.28.09.53.09.77.02,1.45.02,2.93.02,4.38,0,.91,0,.92-.91,1.22-3.03,1-5.85.52-8.35-1.42-2.49-1.91-3.72-4.54-3.93-7.63-.19-2.8.59-5.35,2.41-7.52,3.72-4.46,10.18-4.49,13.92-.08,1.66,1.94,2.49,4.21,2.5,6.76Z" fill="#1a3c6b"/>
        <path d="M78.53,263.18c.02,3.11.02,6.23,0,9.34q0,.92-.88.92c-1.03.02-2.06.02-3.08,0-.64,0-.66-.02-.66-.69-.02-3.02-.02-6.02,0-9.04,0-.91-.19-1.78-.55-2.63-.78-1.86-2.44-2.97-4.33-2.96-1.88.03-3.55,1.24-4.29,3.08-.78,2-.31,4.32,1.17,5.77,1.74,1.71,4.35,1.77,6.16.17.2-.19.41-.38.78-.74,0,2.08-.02,3.94,0,5.8,0,.41-.3.5-.59.61-1.96.74-3.94.84-5.93.16-3.38-1.19-5.44-3.63-6.3-7.04-1.02-4.02-.08-7.62,2.94-10.5,3.99-3.8,10.17-3.13,13.48,1.39,1.38,1.88,2.06,4,2.06,6.34Z" fill="#1a3c6b"/>
        <path d="M149.27,260.7v12.03c-.02.7-.02.72-.72.72-1.13.02-2.24.02-3.36,0-.74,0-.75-.02-.75-.8v-9.79c0-.61-.06-1.25,0-1.86.23-2.05-1.83-3.97-4.32-3.5-1.71.31-2.93,1.75-2.88,3.47.06,3.68.02,7.34.02,11.01v.56q0,.91-.91.91c-1.1.02-2.19-.02-3.27.02-.47.02-.67-.11-.66-.61.02-4.18-.09-8.34.05-12.5.09-3.21,1.97-5.35,4.83-6.62,3.74-1.66,8.24-.47,10.54,2.71.92,1.27,1.42,2.68,1.42,4.26Z" fill="#1a3c6b"/>
        <path d="M176.47,220.41c-.03,2.55-1.69,4.61-4.11,5.22-.58.14-1.17.13-1.77.14h-7.73v-.02c-2.61,0-5.22-.02-7.84.02-3.35.03-6.35-2.24-7.34-5.32-.2-.66-.36-1.31-.36-2,0-2.68-.02-5.35,0-8.03,0-.69.02-.7.72-.7.94-.02,1.86-.02,2.8,0,.7,0,.72.02.72.74.02,2.11,0,4.22.02,6.34,0,.34,0,.69.02,1.03.16,1.77,1.1,2.99,2.68,3.74.36.17.75.25,1.17.25,4.54,0,9.07.02,13.61,0,1.99-.02,3.46-1.49,3.49-3.49.03-2.49.02-4.97.02-7.46v-.64c-.03-.36.11-.52.47-.52,1,.02,2,.02,2.99.02.31-.02.47.11.45.44v.36c0,3.3.03,6.6,0,9.89Z" fill="#1a3c6b"/>
        <path d="M220.87,259.3c0,2.27-.02,4.54,0,6.79.03,2.49.8,3.27,3.27,3.44.5.03.99.05,1.49.03.36,0,.48.16.48.5-.02.94,0,1.86,0,2.8,0,.23-.03.44-.34.44-1.86-.05-3.74.19-5.57-.14-2.58-.44-4.1-2.27-4.19-4.94-.05-1.49,0-2.97,0-4.46h-.02c0-1.53-.02-3.05.02-4.57,0-.48-.16-.66-.64-.64-.74.03-1.49,0-2.24.02-.36,0-.58-.08-.58-.52.02-.89.02-1.8,0-2.69,0-.41.17-.55.56-.53.69.02,1.36,0,2.05,0q.83,0,.83-.89v-5.12q.02-.7.72-.72c1.19,0,2.36.03,3.55,0,.5-.02.63.17.61.64-.02,1.77,0,3.54,0,5.3,0,.77.02.78.75.78,1.27.02,2.55,0,3.82,0,.66.02.66.03.67.69,0,.83-.02,1.67,0,2.52.02.41-.14.53-.53.53-1.31-.02-2.61-.02-3.93-.02-.77.02-.78.02-.78.75Z" fill="#1a3c6b"/>
        <path d="M249.73,270.05c.02.83.02,1.67,0,2.5,0,.74-.02.75-.8.75-1.17.02-2.36,0-3.77,0-1.35-.03-2.93.06-4.51-.19-4.07-.61-6.62-3.24-7.15-7.31-.23-1.75-.16-3.49.31-5.18.74-2.67,2.49-4.38,5.1-5.22,1.11-.34,2.24-.53,3.39-.55,2.24-.03,4.47-.03,6.71-.03.69,0,.7.02.7.66.02.94-.02,1.86.02,2.8.02.48-.16.66-.64.64-1.64-.02-3.3,0-4.94-.02-.88,0-1.74.08-2.58.3-1.52.36-2.42,1.33-2.77,2.82-.3,1.3-.31,2.6-.06,3.9.27,1.44,1.11,2.38,2.47,2.89,1.06.39,2.19.48,3.3.5,1.49.03,2.99,0,4.47.02.72,0,.74.02.74.72Z" fill="#1a3c6b"/>
        <path d="M83.86,273.45c-1,0-1.99.02-2.99,0-.64,0-.66-.02-.66-.69-.02-3.07,0-6.15,0-9.23v-18.44c-.02-.31.11-.45.42-.45,1.25,0,2.49,0,3.74-.02.36,0,.5.17.49.52-.02.19,0,.38,0,.56v26.73c0,1.08.09,1.03-1,1.02Z" fill="#1a3c6b"/>
        <path d="M36.35,245.41v27.58c.02.31-.13.45-.44.45-1.25,0-2.49,0-3.74.02-.36,0-.48-.17-.47-.52.02-.19,0-.38,0-.56v-26.66c0-1.14-.17-1.11,1.1-1.11h2.8c.74.02.75.03.75.8Z" fill="#1a3c6b"/>
        <path d="M140.72,224.04h-2.14q-.8-.02-.8-.84c-.02-1.49,0-2.99,0-4.47v-20.32c-.02-.3.09-.47.42-.47,1.05.02,2.11.02,3.18,0,.33,0,.42.17.41.47v24.61c0,1.16.09,1.02-1.06,1.03Z" fill="#1a3c6b"/>
        <path d="M194.58,224.5c-.05,3.35-2.08,6.09-5.19,7.07-.99.31-2,.33-3.03.31-.3,0-.45-.09-.45-.42.02-.97.02-1.92,0-2.89,0-.41.25-.42.55-.42,1.05,0,1.96-.38,2.71-1.08.89-.81,1.3-1.86,1.3-3.07-.02-4.35,0-8.7,0-13.05q0-1.27,1.28-1.27c.72,0,1.44-.02,2.14,0,.69,0,.7.02.7.74v7.37c0,2.24.03,4.47,0,6.71Z" fill="#1a3c6b"/>
        <path d="M232.46,255.5v17.05c0,.75-.02.75-.78.75-1.2.02-2.41.02-3.63,0-.64,0-.66-.02-.66-.67-.02-2.05-.02-4.1-.02-6.15,0-3.6,0-7.21.02-10.81q0-.84.86-.84c1.17-.02,2.36-.02,3.54,0,.66,0,.66.02.67.67Z" fill="#1a3c6b"/>
        <path d="M183.6,203.44v21.35c0,.09.02.17,0,.27q0,.7-.72.7c-.86.02-1.74.02-2.61.02-.7-.02-.72-.03-.72-.72-.02-1.8-.02-3.61-.02-5.41v-15.38c0-.25.02-.5.02-.75,0-.23.08-.42.36-.42h3.36c.23,0,.33.13.33.34Z" fill="#1a3c6b"/>
        <path d="M232.46,248.59c-.02,1.22-.02,2.42,0,3.64,0,.36-.14.5-.5.48-.67-.02-1.36,0-2.05,0s-1.36-.02-2.05,0c-.36.02-.48-.14-.48-.5.02-1.2.02-2.42,0-3.63,0-.36.14-.48.5-.48,1.36.02,2.74.02,4.1,0,.36,0,.48.14.48.48Z" fill="#1a3c6b"/>
        <path d="M28.94,211.98c.02,1.5-1.22,2.74-2.71,2.72-1.45-.02-2.67-1.22-2.69-2.68-.02-1.53,1.14-2.71,2.67-2.72,1.56-.02,2.72,1.13,2.72,2.68Z" fill="#1a3c6b"/>
        <path d="M167.15,206.48c-.02,1.05-.02,2.1-.02,3.14.02.31-.11.45-.42.45-.56-.02-1.13,0-1.67,0-.5,0-1-.02-1.49,0-.42.03-.53-.16-.53-.55.02-1.02.02-2.03.02-3.05-.02-.34.09-.52.47-.52,1.05.02,2.11.02,3.16,0,.36,0,.48.17.48.52Z" fill="#1a3c6b"/>
        <path d="M160.59,206.43c-.02,1.06-.02,2.11,0,3.18,0,.38-.17.48-.52.47-.53-.02-1.06,0-1.58,0h-1.22c-.77-.02-.78-.02-.78-.74-.02-.94,0-1.88-.02-2.8,0-.36.08-.58.52-.58,1.02.02,2.05.02,3.08,0,.33,0,.52.09.52.47Z" fill="#1a3c6b"/>
        <path d="M249.4,203.39c-.02.53,0,1.06,0,1.58s-.02,1,0,1.49c.02.39-.11.58-.53.56-1.02-.02-2.03-.02-3.07,0-.34,0-.52-.11-.5-.48v-3.16c0-.3.09-.45.42-.45,1.08.02,2.17.02,3.25,0,.33,0,.42.17.42.47Z" fill="#1a3c6b"/>
        <path d="M11.01,119.77c-.02.39.06.78-.16,1.14,0-.09-.02-.19-.02-.3-.02-.14-.02-.28-.02-.44v-.02c.02-.14.08-.27.19-.39Z" fill="#1a3c6b"/>
        <path d="M11.21,118.26c.02.41.02.81-.19,1.19.03-.39-.17-.83.19-1.19Z" fill="#1a3c6b"/>
        <path d="M83.08,182.35v.02s-.05.06-.08.06c-.3.02-.61.06-.91-.02,0-.02-.02-.05-.02-.06v-.02s-.02-.05-.02-.06h.94s.06.03.06.06l.02.02Z" fill="#1a3c6b"/>
        <path d="M111.19,182.26v.08l-.02.02v.06c-.25.08-.48.03-.74.02-.05-.03-.06-.05-.06-.08v-.03s.05-.05.08-.05c.23,0,.48,0,.74-.02Z" fill="#1a3c6b"/>
        <path d="M83.42,182.34c-.11.14-.27.11-.42.09.02-.02.02-.05.02-.08s0-.06-.02-.08c.14-.03.3-.05.42.06Z" fill="#1a3c6b"/>
        <path d="M110.45,182.28s-.02.03,0,.06c0,0-.02,0,0,.02-.02.02-.02.05-.02.08-.08-.02-.17-.03-.25-.05.03-.19.16-.11.27-.11Z" fill="#1a3c6b"/>
      </g>
    </g>
  </g>
</svg>