<?xml version="1.0" encoding="UTF-8"?>
<!--Generator: Apple Native CoreSVG 232.5-->
<!DOCTYPE svg
PUBLIC "-//W3C//DTD SVG 1.1//EN"
       "http://www.w3.org/Graphics/SVG/1.1/DTD/svg11.dtd">
<svg version="1.1" xmlns="http://www.w3.org/2000/svg" xmlns:xlink="http://www.w3.org/1999/xlink" width="27.5488" height="21.4746">
 <g>
  <rect height="21.4746" opacity="0" width="27.5488" x="0" y="0"/>
  <path d="M3.79883 21.4746L24.043 21.4746C26.2695 21.4746 27.5488 20.1953 27.5488 17.7148L27.5488 3.78906C27.5488 1.30859 26.2598 0.0292969 23.7402 0.0292969L3.50586 0.0292969C1.26953 0.0292969 0 1.28906 0 3.78906L0 17.7148C0 20.2148 1.2793 21.4746 3.79883 21.4746ZM3.75977 19.8242C2.39258 19.8242 1.65039 19.1016 1.65039 17.6953L1.65039 3.78906C1.65039 2.40234 2.39258 1.67969 3.75977 1.67969L23.7891 1.67969C25.127 1.67969 25.8984 2.40234 25.8984 3.79883L25.8984 17.7051C25.8984 19.1016 25.127 19.8242 23.7891 19.8242ZM13.8086 13.9648C14.6387 13.9648 15.459 13.6328 16.3086 12.793L26.6211 2.68555L25.4883 1.55273L15.3516 11.5332C14.8047 12.0801 14.2969 12.3047 13.8086 12.3047C13.3203 12.3047 12.8125 12.0605 12.2754 11.5332L2.09961 1.51367L0.957031 2.64648L11.3086 12.793C12.1582 13.6328 12.9785 13.9648 13.8086 13.9648ZM25.3516 19.9316L26.4746 18.7891L18.1543 10.6348L17.0215 11.7578ZM1.12305 18.8086L2.23633 19.9609L10.5957 11.7578L9.46289 10.6348Z" fill="#163A6C"/>
 </g>
</svg>
