<?xml version="1.0" encoding="UTF-8"?>
<!--Generator: Apple Native CoreSVG 232.5-->
<!DOCTYPE svg
PUBLIC "-//W3C//DTD SVG 1.1//EN"
       "http://www.w3.org/Graphics/SVG/1.1/DTD/svg11.dtd">
<svg version="1.1" xmlns="http://www.w3.org/2000/svg" xmlns:xlink="http://www.w3.org/1999/xlink" width="12.7954" height="10.0122">
 <g>
  <rect height="10.0122" opacity="0" width="12.7954" x="0" y="0"/>
  <path d="M1.86768 10.0122L11.1328 10.0122C12.1729 10.0122 12.7954 9.4043 12.7954 8.17383L12.7954 1.8457C12.7954 0.615234 12.1655 0.00732422 10.9277 0.00732422L1.6626 0.00732422C0.615234 0.00732422 0 0.615234 0 1.8457L0 8.17383C0 9.4043 0.622559 10.0122 1.86768 10.0122ZM1.82373 9.01611C1.29639 9.01611 1.00342 8.73047 1.00342 8.17383L1.00342 1.83838C1.00342 1.28906 1.29639 1.00342 1.82373 1.00342L10.9644 1.00342C11.4917 1.00342 11.792 1.28906 11.792 1.8457L11.792 8.18115C11.792 8.73047 11.4917 9.01611 10.9644 9.01611ZM6.40137 6.59912C6.82617 6.59912 7.229 6.43066 7.64648 6.01318L12.2754 1.45752L11.5942 0.776367L7.08984 5.23682C6.84082 5.48584 6.62842 5.5957 6.40137 5.5957C6.16699 5.5957 5.95459 5.47852 5.70557 5.23682L1.17188 0.74707L0.498047 1.42822L5.14893 6.01318C5.56641 6.43066 5.96924 6.59912 6.40137 6.59912ZM11.543 9.21387L12.2168 8.54004L8.58398 4.91455L7.91016 5.58838ZM0.578613 8.53271L1.25977 9.21387L4.89258 5.58838L4.21143 4.91455Z" fill="#163A6C"/>
 </g>
</svg>
