<?xml version="1.0" encoding="UTF-8"?>
<!--Generator: Apple Native CoreSVG 232.5-->
<!DOCTYPE svg
PUBLIC "-//W3C//DTD SVG 1.1//EN"
       "http://www.w3.org/Graphics/SVG/1.1/DTD/svg11.dtd">
<svg version="1.1" xmlns="http://www.w3.org/2000/svg" xmlns:xlink="http://www.w3.org/1999/xlink" width="7.61719" height="12.3706">
 <g>
  <rect height="12.3706" opacity="0" width="7.61719" x="0" y="0"/>
  <path d="M1.74316 11.3013C1.31836 11.3013 1.05469 11.0596 1.05469 10.6567L1.05469 1.69922C1.05469 1.29639 1.31836 1.05469 1.74316 1.05469L5.8667 1.05469C6.29883 1.05469 6.55518 1.29639 6.55518 1.69922L6.55518 10.6567C6.55518 11.0596 6.29883 11.3013 5.8667 11.3013Z" fill="#163A6C" fill-opacity="0.2"/>
  <path d="M1.604 12.356L6.00586 12.356C6.95068 12.356 7.61719 11.7334 7.61719 10.8398L7.61719 1.51611C7.61719 0.622559 6.95068 0 6.00586 0L1.604 0C0.65918 0 0 0.622559 0 1.51611L0 10.8398C0 11.7334 0.65918 12.356 1.604 12.356ZM1.74316 11.3013C1.31836 11.3013 1.05469 11.0596 1.05469 10.6567L1.05469 1.69922C1.05469 1.29639 1.31836 1.05469 1.74316 1.05469L5.8667 1.05469C6.29883 1.05469 6.55518 1.29639 6.55518 1.69922L6.55518 10.6567C6.55518 11.0596 6.29883 11.3013 5.8667 11.3013ZM2.57812 10.8691L5.04639 10.8691C5.21484 10.8691 5.33936 10.752 5.33936 10.5762C5.33936 10.4004 5.21484 10.2832 5.04639 10.2832L2.57812 10.2832C2.40234 10.2832 2.28516 10.4004 2.28516 10.5762C2.28516 10.752 2.40234 10.8691 2.57812 10.8691ZM3.09814 2.37305L4.51904 2.37305C4.76074 2.37305 4.9585 2.17529 4.9585 1.92627C4.9585 1.68457 4.76074 1.48682 4.51904 1.48682L3.09814 1.48682C2.84912 1.48682 2.65137 1.68457 2.65137 1.92627C2.65137 2.17529 2.84912 2.37305 3.09814 2.37305Z" fill="#163A6C"/>
 </g>
</svg>
